<?xml version="1.0" standalone="no"?>
<!DOCTYPE svg PUBLIC "-//W3C//DTD SVG 20010904//EN"
 "http://www.w3.org/TR/2001/REC-SVG-20010904/DTD/svg10.dtd">
<svg version="1.0" xmlns="http://www.w3.org/2000/svg"
 width="400.000000pt" height="400.000000pt" viewBox="0 0 400.000000 400.000000"
 preserveAspectRatio="xMidYMid meet">
<metadata>
Created by potrace 1.11, written by Peter Selinger 2001-2013
</metadata>
<g transform="translate(0.000000,400.000000) scale(0.100000,-0.100000)"
fill="#000000" stroke="none">
<path d="M30 2041 l0 -1422 473 2 c480 2 585 8 733 44 190 46 366 122 524 226
115 76 284 242 355 349 118 178 201 389 228 580 16 110 14 348 -3 441 -7 35
-14 77 -17 92 -2 15 -15 63 -28 105 -111 373 -350 649 -721 836 -139 70 -247
103 -494 152 -19 3 -263 9 -542 11 l-508 5 0 -1421z m945 1175 c453 -44 817
-271 994 -621 85 -169 122 -328 127 -535 4 -196 -14 -302 -81 -475 -119 -304
-360 -529 -690 -648 -86 -30 -236 -64 -330 -73 -113 -11 -706 -11 -712 0 -5 7
-8 2252 -4 2338 1 9 9 18 19 20 31 6 605 1 677 -6z"/>
<path d="M2285 3452 c-3 -4 280 -389 296 -402 7 -7 577 -762 606 -803 12 -18
22 -35 22 -38 1 -3 -168 -5 -375 -5 -207 1 -381 -2 -387 -6 -7 -4 -10 -239 -9
-770 0 -419 1 -773 1 -785 1 -21 4 -22 124 -22 l122 1 0 671 0 671 502 0 502
0 -22 30 c-12 17 -98 132 -191 256 -94 124 -199 263 -234 310 -35 47 -69 92
-75 100 -115 143 -416 555 -409 559 6 3 278 6 606 6 l597 -1 -3 116 -3 115
-833 0 c-458 0 -835 -1 -837 -3z"/>
</g>
</svg>
